<?xml version="1.0" encoding="utf-8" standalone="no"?>
<!DOCTYPE svg PUBLIC "-//W3C//DTD SVG 1.1//EN"
  "http://www.w3.org/Graphics/SVG/1.1/DTD/svg11.dtd">
<!-- Created with matplotlib (https://matplotlib.org/) -->
<svg height="288pt" version="1.1" viewBox="0 0 432 288" width="432pt" xmlns="http://www.w3.org/2000/svg" xmlns:xlink="http://www.w3.org/1999/xlink">
 <defs>
  <style type="text/css">
*{stroke-linecap:butt;stroke-linejoin:round;}
  </style>
 </defs>
 <g id="figure_1">
  <g id="patch_1">
   <path d="M 0 288 
L 432 288 
L 432 0 
L 0 0 
z
" style="fill:#ffffff;"/>
  </g>
  <g id="axes_1">
   <g id="line2d_1">
    <path clip-path="url(#pdc17b63fc9)" d="M 32.245187 152.972938 
L 35.717405 174.288733 
M 30.221189 131.468234 
L 32.245187 152.972938 
M 29.454545 109.882385 
L 30.221189 131.468234 
M 30.42193 88.311997 
L 29.454545 109.882385 
M 34.791269 67.201205 
L 30.42193 88.311997 
M 45.899692 48.920123 
L 34.791269 67.201205 
M 65.123717 39.679026 
L 45.899692 48.920123 
M 86.643867 38.824891 
L 65.123717 39.679026 
M 107.747634 43.284292 
L 86.643867 38.824891 
M 127.721331 51.498345 
L 107.747634 43.284292 
M 147.128318 61.007579 
L 127.721331 51.498345 
M 167.254623 68.804845 
L 147.128318 61.007579 
M 188.658642 70.955851 
L 167.254623 68.804845 
M 209.886758 67.114414 
L 188.658642 70.955851 
M 230.276719 59.980724 
L 209.886758 67.114414 
M 250.08996 51.35185 
L 230.276719 59.980724 
M 269.937152 42.804069 
L 250.08996 51.35185 
M 290.58703 36.518997 
L 269.937152 42.804069 
M 312.086735 35.456215 
L 290.58703 36.518997 
M 332.930368 40.908579 
L 312.086735 35.456215 
M 351.839 51.281174 
L 332.930368 40.908579 
M 368.110613 65.439418 
L 351.839 51.281174 
M 381.009361 82.724778 
L 368.110613 65.439418 
M 390.463992 102.123402 
L 381.009361 82.724778 
M 396.987115 122.703315 
L 390.463992 102.123402 
M 400.965012 143.92381 
L 396.987115 122.703315 
M 402.545455 165.459676 
L 400.965012 143.92381 
M 402.348289 187.05758 
L 402.545455 165.459676 
M 399.703606 208.459309 
L 402.348289 187.05758 
M 386.412775 223.728741 
L 399.703606 208.459309 
M 365.314852 220.150255 
L 386.412775 223.728741 
M 345.419296 211.724813 
L 365.314852 220.150255 
M 325.594436 203.126964 
L 345.419296 211.724813 
M 305.120901 196.229191 
L 325.594436 203.126964 
M 284.101143 191.222393 
L 305.120901 196.229191 
M 262.839194 187.343301 
L 284.101143 191.222393 
M 241.411742 184.575833 
L 262.839194 187.343301 
M 219.874639 185.427287 
L 241.411742 184.575833 
M 200.730156 194.75414 
L 219.874639 185.427287 
M 188.659717 212.561314 
L 200.730156 194.75414 
M 178.725453 231.742081 
L 188.659717 212.561314 
M 164.223331 247.408844 
L 178.725453 231.742081 
M 143.422262 252.543785 
L 164.223331 247.408844 
M 121.831325 251.944031 
L 143.422262 252.543785 
M 100.308171 249.993172 
L 121.831325 251.944031 
M 79.329495 245.032492 
L 100.308171 249.993172 
M 61.648062 232.947237 
L 79.329495 245.032492 
M 49.62561 215.073669 
L 61.648062 232.947237 
M 41.386999 195.123348 
L 35.717405 174.288733 
M 41.386999 195.123348 
L 49.62561 215.073669 
M 88.492556 165.445227 
L 100.128511 182.616272 
M 87.086875 144.350439 
L 88.492556 165.445227 
M 91.826756 123.698283 
L 87.086875 144.350439 
M 104.499798 107.327066 
L 91.826756 123.698283 
M 124.516807 112.245069 
L 104.499798 107.327066 
M 143.259579 122.257827 
L 124.516807 112.245069 
M 162.028507 132.076204 
L 143.259579 122.257827 
M 165.326673 151.744417 
L 162.028507 132.076204 
M 155.61784 170.557012 
L 165.326673 151.744417 
M 140.557195 185.339055 
L 155.61784 170.557012 
M 120.097414 189.428196 
L 100.128511 182.616272 
M 120.097414 189.428196 
L 140.557195 185.339055 
M 66.808226 145.845613 
L 64.889316 119.967322 
M 66.808226 145.845613 
L 68.765684 171.941077 
M 49.493437 151.704655 
L 32.245187 152.972938 
M 49.493437 151.704655 
L 30.221189 131.468234 
M 49.493437 151.704655 
L 68.765684 171.941077 
M 49.493437 151.704655 
L 66.808226 145.845613 
M 48.286251 127.326784 
L 30.221189 131.468234 
M 48.286251 127.326784 
L 29.454545 109.882385 
M 48.286251 127.326784 
L 64.889316 119.967322 
M 48.286251 127.326784 
L 66.808226 145.845613 
M 48.286251 127.326784 
L 49.493437 151.704655 
M 77.926279 158.145758 
L 88.492556 165.445227 
M 77.926279 158.145758 
L 87.086875 144.350439 
M 77.926279 158.145758 
L 68.765684 171.941077 
M 77.926279 158.145758 
L 66.808226 145.845613 
M 75.968821 132.050294 
L 87.086875 144.350439 
M 75.968821 132.050294 
L 91.826756 123.698283 
M 75.968821 132.050294 
L 64.889316 119.967322 
M 75.968821 132.050294 
L 66.808226 145.845613 
M 75.968821 132.050294 
L 77.926279 158.145758 
M 324.601664 111.910191 
L 306.1987 120.450858 
M 324.601664 111.910191 
L 345.785333 103.024357 
M 340.575917 126.011296 
L 337.438631 146.11401 
M 340.575917 126.011296 
L 345.785333 103.024357 
M 340.575917 126.011296 
L 324.601664 111.910191 
M 322.378346 133.327267 
L 306.1987 120.450858 
M 322.378346 133.327267 
L 337.438631 146.11401 
M 322.378346 133.327267 
L 324.601664 111.910191 
M 322.378346 133.327267 
L 340.575917 126.011296 
M 299.322611 55.445887 
L 290.58703 36.518997 
M 299.322611 55.445887 
L 312.086735 35.456215 
M 299.322611 55.445887 
L 308.058191 74.372777 
M 289.003392 83.026579 
L 270.063259 91.696566 
M 289.003392 83.026579 
L 308.058191 74.372777 
M 289.003392 83.026579 
L 299.322611 55.445887 
M 280.267811 64.099689 
L 269.937152 42.804069 
M 280.267811 64.099689 
L 290.58703 36.518997 
M 280.267811 64.099689 
L 270.063259 91.696566 
M 280.267811 64.099689 
L 299.322611 55.445887 
M 280.267811 64.099689 
L 289.003392 83.026579 
M 260.202651 70.34183 
L 250.08996 51.35185 
M 260.202651 70.34183 
L 269.937152 42.804069 
M 260.202651 70.34183 
L 270.063259 91.696566 
M 260.202651 70.34183 
L 280.267811 64.099689 
M 166.122536 117.706095 
L 143.259579 122.257827 
M 166.122536 117.706095 
L 162.028507 132.076204 
M 166.122536 117.706095 
L 189.327544 110.80957 
M 177.959474 132.931185 
L 162.028507 132.076204 
M 177.959474 132.931185 
L 165.326673 151.744417 
M 177.959474 132.931185 
L 189.327544 110.80957 
M 177.959474 132.931185 
L 166.122536 117.706095 
M 271.33401 117.616278 
L 270.063259 91.696566 
M 271.33401 117.616278 
L 270.714469 141.339307 
M 253.904913 130.858274 
L 235.721335 124.423131 
M 253.904913 130.858274 
L 270.714469 141.339307 
M 253.904913 130.858274 
L 271.33401 117.616278 
M 252.93579 109.618214 
L 235.721335 124.423131 
M 252.93579 109.618214 
L 270.063259 91.696566 
M 252.93579 109.618214 
L 271.33401 117.616278 
M 252.93579 109.618214 
L 253.904913 130.858274 
M 288.309767 130.259123 
L 306.1987 120.450858 
M 288.309767 130.259123 
L 270.714469 141.339307 
M 288.309767 130.259123 
L 271.33401 117.616278 
M 289.309248 106.780146 
L 306.1987 120.450858 
M 289.309248 106.780146 
L 270.063259 91.696566 
M 289.309248 106.780146 
L 289.003392 83.026579 
M 289.309248 106.780146 
L 271.33401 117.616278 
M 289.309248 106.780146 
L 288.309767 130.259123 
M 320.364416 153.086956 
L 337.438631 146.11401 
M 320.364416 153.086956 
L 303.14872 162.31094 
M 320.364416 153.086956 
L 322.378346 133.327267 
M 304.933348 142.288732 
L 306.1987 120.450858 
M 304.933348 142.288732 
L 303.14872 162.31094 
M 304.933348 142.288732 
L 322.378346 133.327267 
M 304.933348 142.288732 
L 288.309767 130.259123 
M 304.933348 142.288732 
L 320.364416 153.086956 
M 52.241545 173.114905 
L 35.717405 174.288733 
M 52.241545 173.114905 
L 32.245187 152.972938 
M 52.241545 173.114905 
L 41.386999 195.123348 
M 52.241545 173.114905 
L 68.765684 171.941077 
M 52.241545 173.114905 
L 49.493437 151.704655 
M 368.328622 151.547457 
L 367.377475 175.48165 
M 368.328622 151.547457 
L 368.570388 134.480408 
M 383.454587 138.883083 
L 396.987115 122.703315 
M 383.454587 138.883083 
L 400.965012 143.92381 
M 383.454587 138.883083 
L 368.570388 134.480408 
M 383.454587 138.883083 
L 368.328622 151.547457 
M 384.809159 159.860855 
L 400.965012 143.92381 
M 384.809159 159.860855 
L 402.545455 165.459676 
M 384.809159 159.860855 
L 367.377475 175.48165 
M 384.809159 159.860855 
L 368.328622 151.547457 
M 384.809159 159.860855 
L 383.454587 138.883083 
M 219.62482 137.901165 
L 235.721335 124.423131 
M 219.62482 137.901165 
L 205.464317 152.440641 
M 198.99393 133.98462 
L 189.327544 110.80957 
M 198.99393 133.98462 
L 205.464317 152.440641 
M 198.99393 133.98462 
L 177.959474 132.931185 
M 198.99393 133.98462 
L 219.62482 137.901165 
M 215.372635 119.046269 
L 235.721335 124.423131 
M 215.372635 119.046269 
L 189.327544 110.80957 
M 215.372635 119.046269 
L 219.62482 137.901165 
M 215.372635 119.046269 
L 198.99393 133.98462 
M 215.84442 98.892643 
L 189.327544 110.80957 
M 215.84442 98.892643 
L 233.450075 90.507645 
M 215.84442 98.892643 
L 215.372635 119.046269 
M 234.519359 106.667783 
L 235.721335 124.423131 
M 234.519359 106.667783 
L 233.450075 90.507645 
M 234.519359 106.667783 
L 252.93579 109.618214 
M 234.519359 106.667783 
L 215.372635 119.046269 
M 234.519359 106.667783 
L 215.84442 98.892643 
M 200.232103 86.314132 
L 188.658642 70.955851 
M 200.232103 86.314132 
L 209.886758 67.114414 
M 200.232103 86.314132 
L 189.327544 110.80957 
M 200.232103 86.314132 
L 215.84442 98.892643 
M 180.394309 87.321651 
L 167.254623 68.804845 
M 180.394309 87.321651 
L 188.658642 70.955851 
M 180.394309 87.321651 
L 189.327544 110.80957 
M 180.394309 87.321651 
L 200.232103 86.314132 
M 185.541154 151.178678 
L 165.326673 151.744417 
M 185.541154 151.178678 
L 205.464317 152.440641 
M 185.541154 151.178678 
L 177.959474 132.931185 
M 185.541154 151.178678 
L 198.99393 133.98462 
M 353.92507 140.748689 
L 337.438631 146.11401 
M 353.92507 140.748689 
L 368.570388 134.480408 
M 353.92507 140.748689 
L 340.575917 126.011296 
M 353.92507 140.748689 
L 368.328622 151.547457 
M 351.835052 159.830055 
L 337.438631 146.11401 
M 351.835052 159.830055 
L 367.377475 175.48165 
M 351.835052 159.830055 
L 368.328622 151.547457 
M 351.835052 159.830055 
L 353.92507 140.748689 
M 151.75027 108.799152 
L 143.259579 122.257827 
M 151.75027 108.799152 
L 157.695885 96.97921 
M 151.75027 108.799152 
L 166.122536 117.706095 
M 169.84355 101.882976 
L 189.327544 110.80957 
M 169.84355 101.882976 
L 157.695885 96.97921 
M 169.84355 101.882976 
L 166.122536 117.706095 
M 169.84355 101.882976 
L 180.394309 87.321651 
M 169.84355 101.882976 
L 151.75027 108.799152 
M 385.209067 181.153218 
L 402.545455 165.459676 
M 385.209067 181.153218 
L 402.348289 187.05758 
M 385.209067 181.153218 
L 399.703606 208.459309 
M 385.209067 181.153218 
L 367.377475 175.48165 
M 385.209067 181.153218 
L 384.809159 159.860855 
M 287.254725 153.003534 
L 270.714469 141.339307 
M 287.254725 153.003534 
L 303.14872 162.31094 
M 287.254725 153.003534 
L 288.309767 130.259123 
M 287.254725 153.003534 
L 304.933348 142.288732 
M 284.570886 173.179725 
L 284.101143 191.222393 
M 284.570886 173.179725 
L 262.839194 187.343301 
M 284.570886 173.179725 
L 303.14872 162.31094 
M 284.570886 173.179725 
L 287.254725 153.003534 
M 267.714449 164.935694 
L 262.839194 187.343301 
M 267.714449 164.935694 
L 270.714469 141.339307 
M 267.714449 164.935694 
L 287.254725 153.003534 
M 267.714449 164.935694 
L 284.570886 173.179725 
M 302.367083 180.262485 
L 305.120901 196.229191 
M 302.367083 180.262485 
L 284.101143 191.222393 
M 302.367083 180.262485 
L 303.14872 162.31094 
M 302.367083 180.262485 
L 284.570886 173.179725 
M 166.496073 198.996241 
L 179.44873 183.245832 
M 166.496073 198.996241 
L 152.193445 215.759412 
M 147.180733 199.920199 
L 140.557195 185.339055 
M 147.180733 199.920199 
L 152.193445 215.759412 
M 147.180733 199.920199 
L 166.496073 198.996241 
M 160.457649 184.367848 
L 155.61784 170.557012 
M 160.457649 184.367848 
L 140.557195 185.339055 
M 160.457649 184.367848 
L 179.44873 183.245832 
M 160.457649 184.367848 
L 166.496073 198.996241 
M 160.457649 184.367848 
L 147.180733 199.920199 
M 221.871687 79.480892 
L 209.886758 67.114414 
M 221.871687 79.480892 
L 230.276719 59.980724 
M 221.871687 79.480892 
L 233.450075 90.507645 
M 221.871687 79.480892 
L 215.84442 98.892643 
M 221.871687 79.480892 
L 200.232103 86.314132 
M 173.127792 168.152144 
L 165.326673 151.744417 
M 173.127792 168.152144 
L 155.61784 170.557012 
M 173.127792 168.152144 
L 179.44873 183.245832 
M 173.127792 168.152144 
L 185.541154 151.178678 
M 173.127792 168.152144 
L 160.457649 184.367848 
M 307.099071 97.874685 
L 306.1987 120.450858 
M 307.099071 97.874685 
L 308.058191 74.372777 
M 307.099071 97.874685 
L 324.601664 111.910191 
M 307.099071 97.874685 
L 289.003392 83.026579 
M 307.099071 97.874685 
L 289.309248 106.780146 
M 325.403582 90.702465 
L 345.785333 103.024357 
M 325.403582 90.702465 
L 308.058191 74.372777 
M 325.403582 90.702465 
L 324.601664 111.910191 
M 325.403582 90.702465 
L 307.099071 97.874685 
M 99.340083 229.948919 
L 100.308171 249.993172 
M 99.340083 229.948919 
L 79.329495 245.032492 
M 99.340083 229.948919 
L 116.478437 215.112222 
M 118.339663 232.670048 
L 121.831325 251.944031 
M 118.339663 232.670048 
L 100.308171 249.993172 
M 118.339663 232.670048 
L 116.478437 215.112222 
M 118.339663 232.670048 
L 99.340083 229.948919 
M 162.605952 85.075089 
L 167.254623 68.804845 
M 162.605952 85.075089 
L 157.695885 96.97921 
M 162.605952 85.075089 
L 180.394309 87.321651 
M 162.605952 85.075089 
L 169.84355 101.882976 
M 134.06924 215.661466 
L 116.478437 215.112222 
M 134.06924 215.661466 
L 152.193445 215.759412 
M 134.06924 215.661466 
L 147.180733 199.920199 
M 134.06924 215.661466 
L 118.339663 232.670048 
M 138.01072 233.360478 
L 143.422262 252.543785 
M 138.01072 233.360478 
L 121.831325 251.944031 
M 138.01072 233.360478 
L 152.193445 215.759412 
M 138.01072 233.360478 
L 118.339663 232.670048 
M 138.01072 233.360478 
L 134.06924 215.661466 
M 158.208388 231.584128 
L 178.725453 231.742081 
M 158.208388 231.584128 
L 164.223331 247.408844 
M 158.208388 231.584128 
L 143.422262 252.543785 
M 158.208388 231.584128 
L 152.193445 215.759412 
M 158.208388 231.584128 
L 138.01072 233.360478 
M 359.244799 120.990679 
L 345.785333 103.024357 
M 359.244799 120.990679 
L 368.570388 134.480408 
M 359.244799 120.990679 
L 340.575917 126.011296 
M 359.244799 120.990679 
L 353.92507 140.748689 
M 78.085126 60.058436 
L 65.123717 39.679026 
M 78.085126 60.058436 
L 86.643867 38.824891 
M 78.085126 60.058436 
L 71.593044 81.738441 
M 58.162623 64.213592 
L 34.791269 67.201205 
M 58.162623 64.213592 
L 45.899692 48.920123 
M 58.162623 64.213592 
L 65.123717 39.679026 
M 58.162623 64.213592 
L 71.593044 81.738441 
M 58.162623 64.213592 
L 78.085126 60.058436 
M 171.553045 214.669889 
L 188.659717 212.561314 
M 171.553045 214.669889 
L 178.725453 231.742081 
M 171.553045 214.669889 
L 152.193445 215.759412 
M 171.553045 214.669889 
L 166.496073 198.996241 
M 171.553045 214.669889 
L 158.208388 231.584128 
M 185.035191 197.37616 
L 200.730156 194.75414 
M 185.035191 197.37616 
L 188.659717 212.561314 
M 185.035191 197.37616 
L 179.44873 183.245832 
M 185.035191 197.37616 
L 166.496073 198.996241 
M 185.035191 197.37616 
L 171.553045 214.669889 
M 81.250317 224.39864 
L 79.329495 245.032492 
M 81.250317 224.39864 
L 61.648062 232.947237 
M 81.250317 224.39864 
L 83.031978 205.868361 
M 81.250317 224.39864 
L 99.340083 229.948919 
M 99.671992 210.533684 
L 116.478437 215.112222 
M 99.671992 210.533684 
L 83.031978 205.868361 
M 99.671992 210.533684 
L 99.340083 229.948919 
M 99.671992 210.533684 
L 81.250317 224.39864 
M 368.578871 102.808785 
L 381.009361 82.724778 
M 368.578871 102.808785 
L 390.463992 102.123402 
M 368.578871 102.808785 
L 345.785333 103.024357 
M 368.578871 102.808785 
L 359.244799 120.990679 
M 359.899137 84.432313 
L 368.110613 65.439418 
M 359.899137 84.432313 
L 381.009361 82.724778 
M 359.899137 84.432313 
L 345.785333 103.024357 
M 359.899137 84.432313 
L 368.578871 102.808785 
M 59.013505 192.452586 
L 49.62561 215.073669 
M 59.013505 192.452586 
L 41.386999 195.123348 
M 59.013505 192.452586 
L 68.765684 171.941077 
M 59.013505 192.452586 
L 52.241545 173.114905 
M 75.726276 189.761094 
L 83.031978 205.868361 
M 75.726276 189.761094 
L 68.765684 171.941077 
M 75.726276 189.761094 
L 59.013505 192.452586 
M 67.014277 210.362678 
L 61.648062 232.947237 
M 67.014277 210.362678 
L 49.62561 215.073669 
M 67.014277 210.362678 
L 83.031978 205.868361 
M 67.014277 210.362678 
L 81.250317 224.39864 
M 67.014277 210.362678 
L 59.013505 192.452586 
M 67.014277 210.362678 
L 75.726276 189.761094 
M 324.819276 72.67439 
L 308.058191 74.372777 
M 324.819276 72.67439 
L 338.981401 70.458529 
M 324.819276 72.67439 
L 325.403582 90.702465 
M 342.057955 84.358387 
L 345.785333 103.024357 
M 342.057955 84.358387 
L 338.981401 70.458529 
M 342.057955 84.358387 
L 325.403582 90.702465 
M 342.057955 84.358387 
L 359.899137 84.432313 
M 342.057955 84.358387 
L 324.819276 72.67439 
M 376.871347 200.620752 
L 399.703606 208.459309 
M 376.871347 200.620752 
L 386.412775 223.728741 
M 376.871347 200.620752 
L 365.314852 220.150255 
M 376.871347 200.620752 
L 367.377475 175.48165 
M 376.871347 200.620752 
L 385.209067 181.153218 
M 356.993521 194.623458 
L 365.314852 220.150255 
M 356.993521 194.623458 
L 345.419296 211.724813 
M 356.993521 194.623458 
L 367.377475 175.48165 
M 356.993521 194.623458 
L 376.871347 200.620752 
M 51.999036 84.505981 
L 30.42193 88.311997 
M 51.999036 84.505981 
L 34.791269 67.201205 
M 51.999036 84.505981 
L 71.593044 81.738441 
M 51.999036 84.505981 
L 58.162623 64.213592 
M 319.65597 56.70878 
L 312.086735 35.456215 
M 319.65597 56.70878 
L 332.930368 40.908579 
M 319.65597 56.70878 
L 308.058191 74.372777 
M 319.65597 56.70878 
L 299.322611 55.445887 
M 319.65597 56.70878 
L 324.819276 72.67439 
M 68.174559 100.478158 
L 71.593044 81.738441 
M 68.174559 100.478158 
L 64.889316 119.967322 
M 68.174559 100.478158 
L 51.999036 84.505981 
M 48.850794 105.092494 
L 29.454545 109.882385 
M 48.850794 105.092494 
L 30.42193 88.311997 
M 48.850794 105.092494 
L 64.889316 119.967322 
M 48.850794 105.092494 
L 48.286251 127.326784 
M 48.850794 105.092494 
L 51.999036 84.505981 
M 48.850794 105.092494 
L 68.174559 100.478158 
M 119.53274 97.204007 
L 104.499798 107.327066 
M 119.53274 97.204007 
L 124.516807 112.245069 
M 119.53274 97.204007 
L 133.903004 86.77564 
M 138.29555 104.347444 
L 124.516807 112.245069 
M 138.29555 104.347444 
L 143.259579 122.257827 
M 138.29555 104.347444 
L 133.903004 86.77564 
M 138.29555 104.347444 
L 151.75027 108.799152 
M 138.29555 104.347444 
L 119.53274 97.204007 
M 82.227854 112.972784 
L 91.826756 123.698283 
M 82.227854 112.972784 
L 104.499798 107.327066 
M 82.227854 112.972784 
L 64.889316 119.967322 
M 82.227854 112.972784 
L 75.968821 132.050294 
M 82.227854 112.972784 
L 68.174559 100.478158 
M 88.046421 94.532754 
L 104.499798 107.327066 
M 88.046421 94.532754 
L 71.593044 81.738441 
M 88.046421 94.532754 
L 68.174559 100.478158 
M 88.046421 94.532754 
L 82.227854 112.972784 
M 96.407846 58.52277 
L 86.643867 38.824891 
M 96.407846 58.52277 
L 107.747634 43.284292 
M 96.407846 58.52277 
L 104.451826 73.737048 
M 96.407846 58.52277 
L 78.085126 60.058436 
M 89.148887 77.270276 
L 71.593044 81.738441 
M 89.148887 77.270276 
L 104.451826 73.737048 
M 89.148887 77.270276 
L 78.085126 60.058436 
M 89.148887 77.270276 
L 88.046421 94.532754 
M 89.148887 77.270276 
L 96.407846 58.52277 
M 192.374695 167.819083 
L 205.464317 152.440641 
M 192.374695 167.819083 
L 179.44873 183.245832 
M 192.374695 167.819083 
L 185.541154 151.178678 
M 192.374695 167.819083 
L 173.127792 168.152144 
M 249.670778 90.715165 
L 270.063259 91.696566 
M 249.670778 90.715165 
L 233.450075 90.507645 
M 249.670778 90.715165 
L 260.202651 70.34183 
M 249.670778 90.715165 
L 252.93579 109.618214 
M 249.670778 90.715165 
L 234.519359 106.667783 
M 241.266805 73.852112 
L 230.276719 59.980724 
M 241.266805 73.852112 
L 250.08996 51.35185 
M 241.266805 73.852112 
L 233.450075 90.507645 
M 241.266805 73.852112 
L 260.202651 70.34183 
M 241.266805 73.852112 
L 221.871687 79.480892 
M 241.266805 73.852112 
L 249.670778 90.715165 
M 149.542726 77.503438 
L 147.128318 61.007579 
M 149.542726 77.503438 
L 167.254623 68.804845 
M 149.542726 77.503438 
L 133.903004 86.77564 
M 149.542726 77.503438 
L 162.605952 85.075089 
M 131.469619 69.493685 
L 127.721331 51.498345 
M 131.469619 69.493685 
L 147.128318 61.007579 
M 131.469619 69.493685 
L 133.903004 86.77564 
M 131.469619 69.493685 
L 149.542726 77.503438 
M 128.517816 200.225638 
L 140.557195 185.339055 
M 128.517816 200.225638 
L 120.097414 189.428196 
M 128.517816 200.225638 
L 116.478437 215.112222 
M 128.517816 200.225638 
L 147.180733 199.920199 
M 128.517816 200.225638 
L 134.06924 215.661466 
M 108.588527 198.821567 
L 100.128511 182.616272 
M 108.588527 198.821567 
L 120.097414 189.428196 
M 108.588527 198.821567 
L 116.478437 215.112222 
M 108.588527 198.821567 
L 99.671992 210.533684 
M 108.588527 198.821567 
L 128.517816 200.225638 
M 237.970499 142.447106 
L 235.721335 124.423131 
M 237.970499 142.447106 
L 239.938097 158.16515 
M 237.970499 142.447106 
L 253.904913 130.858274 
M 237.970499 142.447106 
L 219.62482 137.901165 
M 224.226206 155.065223 
L 205.464317 152.440641 
M 224.226206 155.065223 
L 239.938097 158.16515 
M 224.226206 155.065223 
L 219.62482 137.901165 
M 224.226206 155.065223 
L 237.970499 142.447106 
M 114.349478 62.755508 
L 107.747634 43.284292 
M 114.349478 62.755508 
L 127.721331 51.498345 
M 114.349478 62.755508 
L 104.451826 73.737048 
M 114.349478 62.755508 
L 96.407846 58.52277 
M 114.349478 62.755508 
L 131.469619 69.493685 
M 231.191761 170.734487 
L 241.411742 184.575833 
M 231.191761 170.734487 
L 219.874639 185.427287 
M 231.191761 170.734487 
L 239.938097 158.16515 
M 231.191761 170.734487 
L 224.226206 155.065223 
M 211.965561 169.051542 
L 219.874639 185.427287 
M 211.965561 169.051542 
L 205.464317 152.440641 
M 211.965561 169.051542 
L 192.374695 167.819083 
M 211.965561 169.051542 
L 224.226206 155.065223 
M 211.965561 169.051542 
L 231.191761 170.734487 
M 198.700615 182.845658 
L 219.874639 185.427287 
M 198.700615 182.845658 
L 200.730156 194.75414 
M 198.700615 182.845658 
L 179.44873 183.245832 
M 198.700615 182.845658 
L 185.035191 197.37616 
M 198.700615 182.845658 
L 192.374695 167.819083 
M 198.700615 182.845658 
L 211.965561 169.051542 
M 250.4321 170.490651 
L 262.839194 187.343301 
M 250.4321 170.490651 
L 241.411742 184.575833 
M 250.4321 170.490651 
L 239.938097 158.16515 
M 250.4321 170.490651 
L 267.714449 164.935694 
M 250.4321 170.490651 
L 231.191761 170.734487 
M 377.883292 120.331612 
L 390.463992 102.123402 
M 377.883292 120.331612 
L 396.987115 122.703315 
M 377.883292 120.331612 
L 368.570388 134.480408 
M 377.883292 120.331612 
L 383.454587 138.883083 
M 377.883292 120.331612 
L 359.244799 120.990679 
M 377.883292 120.331612 
L 368.578871 102.808785 
M 84.19526 177.188969 
L 100.128511 182.616272 
M 84.19526 177.188969 
L 88.492556 165.445227 
M 84.19526 177.188969 
L 68.765684 171.941077 
M 84.19526 177.188969 
L 77.926279 158.145758 
M 84.19526 177.188969 
L 75.726276 189.761094 
M 91.497029 194.285709 
L 100.128511 182.616272 
M 91.497029 194.285709 
L 83.031978 205.868361 
M 91.497029 194.285709 
L 99.671992 210.533684 
M 91.497029 194.285709 
L 75.726276 189.761094 
M 91.497029 194.285709 
L 108.588527 198.821567 
M 91.497029 194.285709 
L 84.19526 177.188969 
M 254.318733 151.160214 
L 270.714469 141.339307 
M 254.318733 151.160214 
L 239.938097 158.16515 
M 254.318733 151.160214 
L 253.904913 130.858274 
M 254.318733 151.160214 
L 267.714449 164.935694 
M 254.318733 151.160214 
L 237.970499 142.447106 
M 254.318733 151.160214 
L 250.4321 170.490651 
M 353.480094 68.292523 
L 351.839 51.281174 
M 353.480094 68.292523 
L 368.110613 65.439418 
M 353.480094 68.292523 
L 338.981401 70.458529 
M 353.480094 68.292523 
L 359.899137 84.432313 
M 353.480094 68.292523 
L 342.057955 84.358387 
M 104.255043 89.707983 
L 104.499798 107.327066 
M 104.255043 89.707983 
L 104.451826 73.737048 
M 104.255043 89.707983 
L 119.53274 97.204007 
M 104.255043 89.707983 
L 88.046421 94.532754 
M 104.255043 89.707983 
L 89.148887 77.270276 
M 335.889972 56.027103 
L 332.930368 40.908579 
M 335.889972 56.027103 
L 351.839 51.281174 
M 335.889972 56.027103 
L 338.981401 70.458529 
M 335.889972 56.027103 
L 324.819276 72.67439 
M 335.889972 56.027103 
L 319.65597 56.70878 
M 335.889972 56.027103 
L 353.480094 68.292523 
M 319.531261 187.27459 
L 325.594436 203.126964 
M 319.531261 187.27459 
L 305.120901 196.229191 
M 319.531261 187.27459 
L 331.87929 178.240828 
M 319.531261 187.27459 
L 302.367083 180.262485 
M 338.273257 192.087121 
L 345.419296 211.724813 
M 338.273257 192.087121 
L 325.594436 203.126964 
M 338.273257 192.087121 
L 331.87929 178.240828 
M 338.273257 192.087121 
L 356.993521 194.623458 
M 338.273257 192.087121 
L 319.531261 187.27459 
M 146.58377 92.159622 
L 133.903004 86.77564 
M 146.58377 92.159622 
L 157.695885 96.97921 
M 146.58377 92.159622 
L 151.75027 108.799152 
M 146.58377 92.159622 
L 162.605952 85.075089 
M 146.58377 92.159622 
L 138.29555 104.347444 
M 146.58377 92.159622 
L 149.542726 77.503438 
M 117.993618 79.945645 
L 133.903004 86.77564 
M 117.993618 79.945645 
L 104.451826 73.737048 
M 117.993618 79.945645 
L 119.53274 97.204007 
M 117.993618 79.945645 
L 131.469619 69.493685 
M 117.993618 79.945645 
L 114.349478 62.755508 
M 117.993618 79.945645 
L 104.255043 89.707983 
M 347.418585 177.43752 
L 367.377475 175.48165 
M 347.418585 177.43752 
L 331.87929 178.240828 
M 347.418585 177.43752 
L 351.835052 159.830055 
M 347.418585 177.43752 
L 356.993521 194.623458 
M 347.418585 177.43752 
L 338.273257 192.087121 
M 335.392651 163.599542 
L 337.438631 146.11401 
M 335.392651 163.599542 
L 331.87929 178.240828 
M 335.392651 163.599542 
L 320.364416 153.086956 
M 335.392651 163.599542 
L 351.835052 159.830055 
M 335.392651 163.599542 
L 347.418585 177.43752 
M 318.78057 170.79589 
L 303.14872 162.31094 
M 318.78057 170.79589 
L 331.87929 178.240828 
M 318.78057 170.79589 
L 320.364416 153.086956 
M 318.78057 170.79589 
L 302.367083 180.262485 
M 318.78057 170.79589 
L 319.531261 187.27459 
M 318.78057 170.79589 
L 335.392651 163.599542 
L 335.392651 163.599542 
" style="fill:none;stroke:#000000;stroke-linecap:square;stroke-width:1.5;"/>
   </g>
   <g id="line2d_2"/>
  </g>
 </g>
 <defs>
  <clipPath id="pdc17b63fc9">
   <rect height="266.4" width="410.4" x="10.8" y="10.8"/>
  </clipPath>
 </defs>
</svg>
